<svg width="1700" height="1700" viewBox="0 0 1700 1700" fill="none" xmlns="http://www.w3.org/2000/svg">
<path d="M0 221.881C0 99.3393 99.3393 0 221.88 0H1478.12C1600.66 0 1700 99.3393 1700 221.88V1478.12C1700 1600.66 1600.66 1700 1478.12 1700H221.881C99.3393 1700 0 1600.66 0 1478.12V221.881Z" fill="white"/>
<path d="M701.972 1035.15C701.972 1031 701.972 1026.85 701.972 1022.69L704.804 950.768C705.936 928.114 706.503 906.026 706.503 884.504H670.256L669.123 883.372C669.123 875.443 669.69 870.346 670.823 868.08C696.497 855.62 717.264 842.972 733.121 830.134C749.357 817.297 765.592 800.118 781.828 778.596C788.246 776.331 796.742 775.198 807.314 775.198L809.579 776.897C802.028 813.144 798.063 839.007 797.686 854.488L869.046 851.656L871.878 854.488C867.725 867.703 865.082 879.596 863.949 890.168C839.407 887.525 816.564 886.015 795.42 885.637L791.456 1004C791.456 1009.29 791.456 1014.39 791.456 1019.3C791.456 1058.19 796.931 1077.63 807.88 1077.63C826.003 1077.63 843.183 1064.98 859.418 1039.69L868.48 1044.78C856.398 1069.7 844.504 1089.9 832.8 1105.38C821.472 1120.86 806.747 1132.94 788.624 1141.63C754.265 1141.63 731.234 1132.38 719.529 1113.88C707.824 1095 701.972 1068.76 701.972 1035.15Z" fill="#6023C4"/>
<path d="M980.079 1141.63C940.057 1141.63 908.152 1130.87 884.365 1109.35C860.579 1087.45 848.685 1058.19 848.685 1021.56C848.685 984.56 862.089 950.201 888.896 918.485C915.704 886.77 948.175 862.983 986.309 847.125C1027.84 847.125 1058.99 857.508 1079.76 878.274C1100.9 898.663 1111.47 927.925 1111.47 966.059C1111.47 1004.19 1098.82 1039.12 1073.53 1070.83C1048.61 1102.55 1017.46 1126.15 980.079 1141.63ZM974.416 888.469C965.731 888.469 958.18 889.979 951.761 892.999C944.965 921.695 941.567 953.977 941.567 989.846C941.567 1025.34 944.588 1052.71 950.629 1071.97C956.67 1090.85 968.374 1100.28 985.743 1100.28C995.937 1100.28 1003.49 1098.77 1008.4 1095.75C1015.19 1067.06 1018.59 1034.97 1018.59 999.474C1018.59 963.605 1015.57 936.231 1009.53 917.353C1003.49 898.097 991.784 888.469 974.416 888.469Z" fill="#6023C4"/>
<path d="M1245.18 771.367C1241.03 779.674 1233.29 789.679 1221.96 801.384C1210.63 813.089 1200.63 821.962 1191.94 828.003C1183.26 822.339 1173.25 813.655 1161.92 801.95C1150.6 789.868 1142.67 779.674 1138.14 771.367C1143.05 763.438 1150.6 754.943 1160.79 745.881C1171.36 736.82 1181.75 730.024 1191.94 725.493C1201 730.401 1210.82 737.386 1221.39 746.448C1231.96 755.132 1239.89 763.438 1245.18 771.367ZM1148.33 952.034C1148.33 928.625 1146.82 904.46 1143.8 879.541C1134.74 875.388 1124.17 872.933 1112.09 872.178V859.718C1157.02 859.718 1200.63 855.943 1242.91 848.391L1246.88 852.356C1238.95 886.337 1234.98 934.477 1234.98 996.776C1234.98 1059.07 1236.68 1098.34 1240.08 1114.58C1253.3 1118.35 1265.76 1122.88 1277.46 1128.17L1275.76 1139.5C1250.09 1136.1 1220.26 1134.4 1186.28 1134.4C1152.67 1134.4 1126.24 1135.72 1106.99 1138.36L1105.29 1127.04C1111.33 1123.64 1123.04 1118.92 1140.4 1112.88C1145.69 1086.45 1148.33 1032.83 1148.33 952.034Z" fill="#6023C4"/>
<path d="M1382.89 1141.63C1345.51 1141.63 1315.68 1130.3 1293.4 1107.65C1271.13 1084.99 1259.99 1055.73 1259.99 1019.86C1259.99 983.616 1273.2 949.635 1299.63 917.919C1326.44 885.826 1357.78 862.228 1393.65 847.125C1428.76 847.125 1460.67 852.033 1489.36 861.85V870.912C1470.86 887.525 1458.59 901.495 1452.55 912.822C1446.88 924.149 1442.92 939.063 1440.65 957.564H1427.06C1425.93 942.839 1424.04 930.756 1421.4 921.317C1404.41 905.082 1384.21 895.642 1360.8 892.999C1354 929.624 1350.6 963.039 1350.6 993.244C1350.6 1051.01 1368.16 1079.9 1403.27 1079.9C1414.6 1079.9 1426.12 1076.12 1437.82 1068.57C1449.53 1060.64 1458.59 1051.2 1465.01 1040.25L1474.07 1044.78C1451.79 1090.85 1421.4 1123.13 1382.89 1141.63Z" fill="#6023C4"/>
<path d="M679.459 672.664C663.188 660.132 648.031 649.23 633.988 639.958C620.002 630.382 606.244 622.111 592.714 615.146C579.185 608.182 565.454 602.284 551.523 597.454C537.592 592.624 522.545 588.689 506.383 585.649C492.05 582.954 478.507 582.775 465.754 585.112C453.058 587.145 441.629 590.836 431.466 596.187C421.608 601.595 413.38 608.414 406.78 616.645C400.238 624.571 396.077 633.261 394.299 642.714C392.464 652.473 392.478 661.632 394.342 670.191C396.567 678.503 402.176 687.293 411.168 696.562C420.217 705.526 433.173 715.54 450.036 726.605C467.262 737.422 490.081 750.397 518.493 765.528C547.21 780.717 572.19 796.465 593.435 812.775C614.679 829.084 631.768 846.506 644.7 865.04C657.69 883.27 666.343 902.736 670.658 923.439C675.279 944.2 675.323 966.625 670.793 990.716C664.656 1023.35 652.479 1052 634.262 1076.67C616.407 1101.1 594.39 1120.8 568.211 1135.76C542.336 1150.79 513.453 1160.83 481.56 1165.88C449.973 1170.99 417.254 1170.36 383.405 1164C359.619 1159.52 336.73 1153.64 314.737 1146.35C292.744 1139.05 272.201 1130.77 253.106 1121.49C234.317 1112.28 217.072 1102.4 201.371 1091.87C186.033 1081.1 172.82 1069.93 161.732 1058.37L208.261 936.881C236.206 969.605 266.595 995.212 299.427 1013.7C332.565 1032.25 367.583 1044.99 404.482 1051.93C419.424 1054.74 434.13 1055.45 448.598 1054.07C463.124 1052.38 476.44 1048.73 488.547 1043.11C500.711 1037.19 511.057 1029.19 519.583 1019.11C528.109 1009.03 533.748 996.674 536.501 982.036C538.279 972.583 537.989 963.214 535.63 953.93C533.576 944.703 527.682 934.912 517.948 924.556C508.27 913.896 494.048 902.222 475.279 889.536C456.816 876.907 431.968 862.131 400.736 845.206C366.874 827.156 339.893 809.452 319.792 792.095C299.692 774.738 284.672 757.232 274.732 739.575C264.791 721.919 259.169 703.97 257.863 685.727C256.616 667.18 257.913 647.69 261.756 627.259C264.336 613.536 269.014 599.576 275.789 585.379C282.563 571.182 291.263 557.663 301.887 544.822C312.816 532.038 325.736 520.417 340.648 509.961C355.617 499.199 372.558 490.545 391.47 483.999C410.745 477.204 432.058 473.003 455.409 471.396C478.76 469.789 504.158 471.566 531.604 476.728C551.12 480.398 569.122 484.573 585.607 489.252C602.397 493.988 618.406 499.525 633.632 505.862C649.164 512.256 664.066 519.479 678.338 527.53C692.916 535.64 707.75 544.902 722.841 555.318L679.459 672.664Z" fill="#6023C4"/>
<path d="M505.016 745.762L644.043 375.251C648.291 363.93 655.959 355.751 667.046 350.714C678.133 345.677 689.337 345.283 700.659 349.531L1030 473.111C1041.32 477.359 1049.5 485.026 1054.54 496.113C1059.58 507.201 1059.97 518.405 1055.72 529.726L963.037 776.733C958.789 788.054 951.122 796.233 940.035 801.27C928.947 806.307 917.743 806.702 906.422 802.454L618.247 694.321L505.016 745.762Z" fill="#6023C4"/>
</svg>
